<svg xmlns="http://www.w3.org/2000/svg" viewBox="0 0 200 200" fill="none" stroke="#ffb000" stroke-width="1.6" stroke-linejoin="round" stroke-linecap="round">
  <rect x="20" y="80" width="160" height="20"/>
  <g fill="#ffb000" stroke="none">
    <polygon points="22,80 26,72 30,80"/>
    <polygon points="34,80 38,72 42,80"/>
    <polygon points="46,80 50,72 54,80"/>
    <polygon points="58,80 62,72 66,80"/>
    <polygon points="70,80 74,72 78,80"/>
    <polygon points="82,80 86,72 90,80"/>
    <polygon points="94,80 98,72 102,80"/>
    <polygon points="106,80 110,72 114,80"/>
    <polygon points="118,80 122,72 126,80"/>
    <polygon points="130,80 134,72 138,80"/>
    <polygon points="142,80 146,72 150,80"/>
    <polygon points="154,80 158,72 162,80"/>
    <polygon points="166,80 170,72 174,80"/>
  </g>
  <line x1="20" y1="100" x2="180" y2="100" opacity="0.4"/>
  <text x="100" y="130" text-anchor="middle" fill="#ffb000" font-family="JetBrains Mono, monospace" font-size="9" letter-spacing="1">8-10 TPI</text>
  <text x="100" y="148" text-anchor="middle" fill="#ffb000" opacity="0.6" font-family="JetBrains Mono, monospace" font-size="7" letter-spacing="1">35-3/8"</text>
</svg>
