<svg xmlns="http://www.w3.org/2000/svg" viewBox="0 0 200 200" fill="none" stroke="#ffb000" stroke-width="1.6" stroke-linejoin="round" stroke-linecap="round">
  <path d="M70 170 L70 110 Q70 90 78 80 L78 50 Q78 40 86 40 Q94 40 94 50 L94 78 L102 78 L102 42 Q102 32 110 32 Q118 32 118 42 L118 78 L126 78 L126 50 Q126 40 134 40 Q142 40 142 50 L142 80 L150 80 L150 64 Q150 56 156 56 Q162 56 162 64 L162 96 Q162 110 156 122 L150 130 L150 170 Z"/>
  <path d="M82 170 L82 130" opacity="0.45"/>
  <path d="M98 170 L98 122" opacity="0.45"/>
  <path d="M114 170 L114 122" opacity="0.45"/>
  <path d="M130 170 L130 122" opacity="0.45"/>
  <circle cx="116" cy="100" r="5" stroke-width="1.2"/>
  <text x="116" y="103" text-anchor="middle" fill="#ffb000" font-family="JetBrains Mono, monospace" font-size="6" letter-spacing="0">A9</text>
  <rect x="70" y="170" width="80" height="6" fill="#ffb000" opacity="0.5" stroke="none"/>
</svg>
